# xmcd
#
# Track frame offsets:
#	150
#	20664
#	40079
#	59913
#	72884
#	93478
#	109911
#	127077
#	147671
#	165630
#	187249
#	205886
#	225172
#
# Disc length: 3255 seconds
#
# Revision: 0
# Processed by: cddbd v1.5.1PL2 Copyright (c) Steve Scherf et al.
# Submitted via: dBpowerAMP V4.0
#
DISCID=c60cb50d
DTITLE=Alanis Morissette - The Collection
DYEAR=2005
DGENRE=Pop
TTITLE0=Thank you
TTITLE1=Head over feet
TTITLE2=8 Easy steps
TTITLE3=Eeverything
TTITLE4=Crazy
TTITLE5=Ironic
TTITLE6=Princes familiar
TTITLE7=You learn
TTITLE8=Simple together
TTITLE9=You oughta know
TTITLE10=That I would be good
TTITLE11=Sister blister
TTITLE12=Hands clean
EXTD=
EXTT0=
EXTT1=
EXTT2=
EXTT3=
EXTT4=
EXTT5=
EXTT6=
EXTT7=
EXTT8=
EXTT9=
EXTT10=
EXTT11=
EXTT12=
PLAYORDER=
